<svg width="107" height="76" viewBox="0 0 107 76" fill="none" xmlns="http://www.w3.org/2000/svg">
<path d="M71.3333 38C71.3333 35.0358 72.5076 32.193 74.5979 30.097C76.6881 28.001 79.5231 26.8235 82.4792 26.8235C85.4352 26.8235 88.2702 28.001 90.3605 30.097C92.4507 32.193 93.625 35.0358 93.625 38C93.625 40.9642 92.4507 43.807 90.3605 45.903C88.2702 47.999 85.4352 49.1765 82.4792 49.1765C79.5231 49.1765 76.6881 47.999 74.5979 45.903C72.5076 43.807 71.3333 40.9642 71.3333 38ZM57.9583 0V76H107V0H57.9583ZM98.0833 58.1176C93.1792 58.1176 89.1667 62.1412 89.1667 67.0588H75.7917C75.7917 64.6875 74.8522 62.4133 73.18 60.7365C71.5078 59.0597 69.2399 58.1176 66.875 58.1176V17.8824C71.8238 17.8824 75.7917 13.9035 75.7917 8.94118H89.1667C89.1667 11.3125 90.1061 13.5867 91.7783 15.2635C93.4505 16.9403 95.7185 17.8824 98.0833 17.8824V58.1176ZM31.2083 13.4118C36.1125 13.4118 40.125 17.4353 40.125 22.3529C40.125 27.2706 36.1125 31.2941 31.2083 31.2941C26.3042 31.2941 22.2917 27.2706 22.2917 22.3529C22.2917 17.4353 26.3042 13.4118 31.2083 13.4118ZM31.2083 4.47059C21.3554 4.47059 13.375 12.4729 13.375 22.3529C13.375 32.2329 21.3554 40.2353 31.2083 40.2353C41.0613 40.2353 49.0417 32.2329 49.0417 22.3529C49.0417 12.4729 41.0613 4.47059 31.2083 4.47059ZM31.2083 49.1765C13.9546 49.1765 0 57.1788 0 67.0588V76H49.0417V67.0588H8.91667C8.91667 64.4659 16.7188 58.1176 31.2083 58.1176C39.3671 58.1176 45.3413 60.1294 49.0417 62.3647V52.3953C44.0037 50.3835 37.8958 49.1765 31.2083 49.1765Z" fill="#163247"/>
</svg>
