<svg width="84" height="81" viewBox="0 0 84 81" fill="none" xmlns="http://www.w3.org/2000/svg">
<path d="M81.7903 13.12L43.0214 0.16621C42.3582 -0.0554033 41.6411 -0.0554033 40.9779 0.16621L2.20902 13.12C1.56572 13.3349 1.0062 13.7473 0.609736 14.2988C0.213268 14.8502 -5.02472e-05 15.5127 8.87791e-09 16.1924V48.5768C8.87791e-09 49.4357 0.340381 50.2594 0.946262 50.8667C1.55214 51.4741 2.3739 51.8152 3.23074 51.8152C4.08759 51.8152 4.90934 51.4741 5.51522 50.8667C6.1211 50.2594 6.46148 49.4357 6.46148 48.5768V20.6858L20.0266 25.2155C16.4225 31.052 15.2764 38.0836 16.84 44.7664C18.4035 51.4492 22.5489 57.2368 28.3659 60.8586C21.0967 63.7165 14.8129 68.8859 10.2172 75.9538C9.97821 76.3098 9.81219 76.71 9.72882 77.131C9.64544 77.5519 9.64638 77.9853 9.73156 78.4059C9.81675 78.8265 9.98449 79.2259 10.225 79.5809C10.4656 79.936 10.7741 80.2396 11.1327 80.474C11.4914 80.7085 11.8929 80.8692 12.314 80.9467C12.7351 81.0242 13.1674 81.0171 13.5857 80.9257C14.0041 80.8343 14.4001 80.6605 14.7508 80.4143C15.1016 80.1681 15.4 79.8545 15.6287 79.4917C21.7146 70.1327 31.3261 64.769 41.9996 64.769C52.6732 64.769 62.2847 70.1327 68.3706 79.4917C68.8444 80.1977 69.5764 80.6884 70.4083 80.8576C71.2401 81.0269 72.1051 80.8612 72.816 80.3964C73.527 79.9316 74.0269 79.2049 74.2077 78.3736C74.3885 77.5423 74.2356 76.673 73.7821 75.9538C69.1863 68.8859 62.8783 63.7165 55.6334 60.8586C61.4448 57.237 65.5862 51.4531 67.1495 44.7752C68.7128 38.0973 67.5704 31.0705 63.9727 25.2358L81.7903 19.2851C82.4337 19.0703 82.9934 18.6579 83.39 18.1065C83.7866 17.555 84 16.8925 84 16.2127C84 15.5329 83.7866 14.8703 83.39 14.3188C82.9934 13.7674 82.4337 13.355 81.7903 13.1402V13.12ZM61.3841 38.8615C61.385 41.9334 60.6592 44.9617 59.2664 47.698C57.8736 50.4343 55.8534 52.8006 53.3716 54.6027C50.8897 56.4048 48.017 57.5914 44.9891 58.0652C41.9612 58.5389 38.8644 58.2863 35.9527 57.328C33.041 56.3698 30.3975 54.7332 28.2391 52.5525C26.0806 50.3718 24.4687 47.7093 23.5356 44.7832C22.6025 41.8572 22.3748 38.7511 22.8712 35.7198C23.3675 32.6885 24.5738 29.8183 26.3911 27.3448L40.9779 32.2025C41.6411 32.4241 42.3582 32.4241 43.0214 32.2025L57.6082 27.3448C60.0627 30.6804 61.386 34.7167 61.3841 38.8615Z" fill="#163247"/>
</svg>
