<svg width="88" height="88" viewBox="0 0 88 88" fill="none" xmlns="http://www.w3.org/2000/svg">
<path d="M87.3565 71.4205L71.3496 41.9695C72.9826 38.282 73.8962 34.2067 73.8962 29.9191C73.8962 13.3948 60.4316 0 43.8242 0C27.2126 0 13.7494 13.3961 13.7494 29.9191C13.7494 34.3101 14.7082 38.4766 16.415 42.2321L0.336834 71.4069C-0.181593 72.3445 -0.0954305 73.501 0.552838 74.3569C1.20247 75.2102 2.29933 75.6115 3.34687 75.3667L17.0768 72.233L21.776 85.2549C22.1426 86.2672 23.0712 86.9694 24.1476 87.0483C24.2174 87.0537 24.2843 87.0564 24.35 87.0564C24.8446 87.0563 25.3298 86.9227 25.7542 86.6699C26.1785 86.4171 26.5261 86.0546 26.7598 85.6209L40.7523 59.6847C41.7724 59.7875 42.7972 59.8388 43.8226 59.8384C44.7732 59.8384 45.7113 59.7894 46.6386 59.7023L60.9347 85.6414C61.1877 86.1012 61.5688 86.4785 62.0322 86.7278C62.4957 86.9772 63.0216 87.088 63.5469 87.0469C64.6205 86.9612 65.545 86.2604 65.9087 85.2535L70.608 72.2316L84.3379 75.3653C85.391 75.6183 86.4769 75.2115 87.1265 74.361C87.7789 73.5119 87.8665 72.3608 87.3563 71.4205H87.3565ZM24.8476 77.6607L21.4064 68.1221C20.936 66.8254 19.5711 66.0702 18.2198 66.3899L8.06494 68.7072L19.6396 47.7034C23.4512 52.8265 28.8672 56.6909 35.1488 58.5714L24.8476 77.6607ZM19.2442 29.919C19.2442 16.4358 30.2717 5.46586 43.8251 5.46586C57.3772 5.46586 68.4033 16.4358 68.4033 29.919C68.4033 43.4022 57.3772 54.3749 43.8251 54.3749C30.2703 54.3749 19.2442 43.4022 19.2442 29.919ZM69.4646 66.3899C68.1078 66.0714 66.7484 66.8253 66.2779 68.1219L62.8136 77.7299L52.2867 58.6324C58.7352 56.7533 64.2825 52.7869 68.1434 47.5142L79.67 68.718L69.4646 66.3899Z" fill="#163247"/>
</svg>
